<?xml version="1.0" standalone="no"?>
<!DOCTYPE svg PUBLIC "-//W3C//DTD SVG 20010904//EN"
 "http://www.w3.org/TR/2001/REC-SVG-20010904/DTD/svg10.dtd">
<svg version="1.0" xmlns="http://www.w3.org/2000/svg"
 width="1420.000000pt" height="1420.000000pt" viewBox="0 0 1420.000000 1420.000000"
 preserveAspectRatio="xMidYMid meet">
<metadata>
Created by potrace 1.14, written by Peter Selinger 2001-2017
</metadata>
<g transform="translate(0.000000,1420.000000) scale(0.100000,-0.100000)"
fill="#000000" stroke="none">
<path d="M6685 12730 c-38 -3 -89 -5 -112 -5 -24 0 -43 -3 -43 -6 0 -4 -15 -6
-32 -5 -18 1 -58 -2 -88 -6 -30 -4 -77 -10 -105 -13 -73 -9 -107 -15 -117 -21
-4 -3 -8 0 -8 7 0 8 -4 8 -12 1 -7 -5 -35 -13 -63 -16 -27 -4 -79 -13 -115
-21 -36 -8 -77 -17 -93 -19 -15 -3 -35 -7 -45 -10 -22 -6 -92 -18 -114 -19
-10 -1 -18 -5 -18 -10 0 -5 -6 -7 -14 -4 -8 3 -17 3 -21 -1 -4 -4 -11 -8 -16
-8 -5 -1 -10 -2 -11 -4 -4 -2 -22 -6 -67 -15 -19 -3 -38 -8 -43 -11 -5 -3 -20
-7 -33 -10 -14 -2 -67 -18 -118 -35 -51 -17 -99 -32 -107 -34 -8 -2 -16 -4
-17 -5 -2 -2 -6 -3 -10 -5 -5 -1 -15 -4 -23 -7 -8 -3 -44 -16 -80 -28 -36 -12
-78 -28 -95 -35 -16 -7 -46 -18 -65 -25 -80 -29 -232 -96 -376 -166 -50 -24
-96 -44 -103 -44 -6 0 -11 -4 -11 -9 0 -5 -16 -15 -35 -22 -19 -7 -35 -17 -35
-21 0 -4 -3 -7 -7 -6 -21 5 -491 -275 -523 -311 -12 -14 -96 -65 -102 -63 -5
1 -8 -2 -8 -7 0 -5 -24 -26 -52 -47 -29 -21 -54 -42 -56 -46 -2 -5 -8 -8 -13
-8 -6 0 -24 -13 -42 -30 -18 -16 -36 -30 -40 -30 -4 0 -18 -11 -31 -25 -13
-14 -26 -25 -30 -25 -3 0 -14 -8 -24 -17 -10 -10 -40 -36 -67 -58 -66 -55
-119 -102 -206 -186 -41 -39 -89 -84 -107 -100 -18 -16 -31 -29 -29 -29 3 0
-34 -40 -82 -89 -103 -107 -151 -159 -151 -165 0 -3 -10 -16 -22 -28 -60 -62
-207 -245 -221 -275 -5 -12 -14 -20 -18 -17 -5 3 -9 -2 -9 -10 0 -8 -6 -19
-12 -23 -7 -4 -17 -15 -23 -24 -21 -33 -90 -134 -95 -139 -16 -14 -150 -225
-150 -236 0 -7 -4 -14 -9 -16 -35 -13 -307 -549 -398 -783 -19 -49 -38 -99
-43 -110 -9 -19 -32 -74 -35 -85 -1 -3 -10 -32 -20 -65 -10 -33 -21 -67 -26
-75 -4 -8 -17 -46 -29 -85 -12 -38 -24 -77 -27 -85 -4 -8 -7 -17 -8 -20 -4
-11 -17 -80 -17 -87 0 -5 -4 -15 -8 -23 -4 -8 -11 -33 -14 -55 -4 -21 -10 -42
-14 -45 -4 -3 -8 -21 -10 -40 -1 -19 -6 -37 -10 -40 -4 -3 -7 -9 -7 -15 -1
-12 -15 -98 -21 -128 -3 -12 -7 -33 -10 -47 -3 -14 -8 -34 -11 -45 -4 -11 -6
-27 -4 -37 1 -9 -3 -19 -9 -23 -6 -3 -8 -10 -5 -15 2 -4 0 -32 -5 -63 -6 -30
-13 -74 -15 -98 -3 -24 -7 -55 -9 -69 -11 -56 -30 -261 -28 -302 0 -10 -4 -18
-9 -18 -6 0 -7 -6 -1 -16 5 -9 6 -31 2 -48 -8 -35 -5 -666 3 -736 3 -25 9 -83
12 -130 9 -110 11 -136 19 -185 4 -22 9 -58 12 -80 4 -36 24 -153 39 -227 3
-16 7 -38 9 -50 2 -13 12 -57 21 -98 9 -41 18 -84 20 -95 10 -47 23 -101 28
-115 4 -8 9 -26 11 -40 3 -14 15 -59 26 -100 11 -41 23 -83 25 -94 2 -10 9
-24 16 -32 6 -8 9 -14 6 -14 -3 0 3 -25 14 -56 11 -30 17 -59 14 -64 -3 -4 0
-10 5 -12 6 -2 12 -10 14 -18 3 -17 3 -16 58 -160 22 -58 49 -124 59 -147 11
-24 19 -46 19 -51 0 -4 14 -34 31 -67 17 -33 30 -61 29 -63 -3 -4 101 -216
109 -222 3 -3 7 -11 8 -17 3 -11 24 -50 116 -217 7 -11 14 -23 17 -26 3 -3 12
-18 20 -35 8 -16 18 -32 21 -35 3 -3 19 -29 35 -57 16 -29 33 -53 37 -53 5 0
5 -4 2 -10 -3 -6 -1 -10 4 -10 6 0 11 -6 11 -14 0 -8 4 -16 8 -18 8 -3 72 -95
72 -103 0 -3 6 -13 14 -22 8 -10 36 -47 63 -83 26 -36 51 -69 55 -75 5 -5 22
-28 38 -50 16 -22 36 -47 45 -56 8 -9 15 -19 15 -22 0 -4 8 -15 18 -25 9 -10
35 -40 57 -67 71 -86 178 -208 235 -266 30 -31 74 -76 97 -100 44 -47 232
-224 273 -258 14 -11 32 -26 40 -34 42 -37 193 -160 255 -206 81 -61 134 -102
150 -116 18 -16 49 -35 68 -41 9 -4 17 -9 17 -13 0 -4 22 -20 50 -36 27 -17
50 -34 50 -38 0 -5 5 -5 10 -2 5 3 10 1 10 -4 0 -6 7 -11 15 -11 8 0 15 -5 15
-10 0 -6 8 -14 18 -17 9 -4 41 -21 70 -40 28 -18 52 -29 52 -25 0 4 4 2 8 -4
10 -15 108 -72 247 -144 66 -34 125 -65 130 -68 6 -4 17 -7 25 -9 8 -1 16 -7
18 -12 2 -6 11 -11 20 -11 9 0 32 -9 50 -20 17 -11 32 -17 32 -14 0 5 10 0 85
-39 17 -8 66 -29 110 -46 44 -18 89 -36 100 -40 11 -5 34 -14 50 -20 17 -6 44
-16 60 -22 17 -7 33 -13 38 -14 4 -2 8 -3 10 -5 1 -1 9 -3 17 -5 8 -2 42 -12
75 -24 169 -58 262 -86 318 -97 10 -2 27 -6 37 -9 10 -3 27 -8 37 -10 10 -2
46 -11 80 -19 34 -9 77 -18 95 -21 18 -3 50 -10 72 -16 21 -6 41 -8 44 -5 3 3
10 2 16 -3 6 -5 33 -12 60 -15 27 -4 52 -9 55 -10 3 -2 33 -7 66 -10 33 -4 69
-9 80 -11 20 -4 72 -12 131 -20 17 -3 64 -7 105 -10 41 -3 97 -8 124 -10 53
-4 321 -17 343 -16 25 2 38 1 67 -2 17 -2 33 1 37 7 5 8 8 8 8 0 0 -11 52 -10
70 1 5 3 11 1 15 -5 4 -6 11 -8 16 -4 5 3 60 7 121 9 61 3 134 7 162 9 28 3
91 8 140 11 49 4 97 8 107 10 9 2 39 6 66 10 26 4 59 9 73 11 14 3 47 7 74 10
27 3 57 9 66 14 10 5 19 7 22 5 4 -4 36 2 158 29 8 2 31 6 50 10 50 9 69 13
120 25 25 7 52 13 60 15 8 2 35 9 60 16 25 7 52 14 60 15 8 2 15 4 15 5 0 1
10 3 23 6 40 7 388 124 428 143 21 11 42 17 46 14 5 -2 8 1 8 8 0 7 3 10 6 7
5 -6 157 52 199 75 11 6 22 12 25 12 3 0 21 8 40 17 19 9 76 36 125 59 50 23
93 42 98 41 4 -1 7 3 7 9 0 5 4 8 9 5 5 -4 11 -3 13 2 1 4 46 29 98 56 52 27
153 85 224 128 71 43 133 78 137 78 5 0 9 5 9 10 0 6 7 10 15 10 8 0 15 4 15
8 0 5 16 17 35 28 19 10 35 22 35 26 0 5 4 8 10 8 8 0 139 87 150 100 3 3 26
21 53 40 26 18 47 38 47 43 0 6 3 8 6 4 4 -3 12 -1 19 6 6 7 27 23 45 37 47
35 93 73 105 86 6 6 51 44 100 85 50 40 176 159 280 264 185 185 216 219 300
319 22 27 48 58 59 70 10 11 30 37 45 56 14 19 31 40 36 46 6 7 18 22 27 35
44 61 138 186 152 202 9 9 16 19 16 21 0 5 102 159 110 166 11 9 140 231 140
241 0 5 3 9 8 9 4 0 13 15 21 32 8 18 23 44 33 57 10 13 18 32 18 42 0 11 4
19 9 19 5 0 13 10 16 23 4 12 19 42 34 67 15 25 38 72 52 105 13 33 28 63 32
66 5 3 9 12 11 20 1 8 12 34 23 59 28 60 72 160 72 163 0 3 12 37 51 137 33
83 126 357 136 399 24 102 35 148 41 161 3 8 8 24 10 34 2 11 10 45 18 75 8
31 16 67 19 81 25 130 36 182 41 190 3 6 0 10 -7 10 -10 0 -10 2 0 8 7 5 14
26 16 48 3 21 5 39 6 39 1 0 3 16 6 35 2 19 6 49 9 65 3 17 8 50 10 75 3 25 7
56 10 70 3 14 7 61 11 105 3 44 8 105 10 135 22 270 17 692 -11 958 -13 129
-18 168 -21 187 -3 11 -7 36 -9 55 -3 19 -8 50 -11 67 -2 18 -7 53 -10 79 -2
26 -6 50 -9 54 -2 4 -7 22 -10 41 -9 46 -13 64 -15 64 -1 0 -3 9 -4 20 -8 53
-18 105 -32 160 -9 33 -18 68 -20 78 -2 9 -7 27 -10 40 -3 12 -6 28 -6 35 -1
6 -4 12 -7 12 -3 0 -7 12 -8 28 -1 15 -23 92 -49 172 -26 80 -48 150 -50 155
-3 17 -123 325 -156 400 -49 114 -210 440 -220 443 -4 2 -8 9 -8 16 0 7 -14
34 -30 60 -17 27 -42 69 -56 95 -14 25 -43 73 -65 106 -22 33 -42 68 -45 78
-4 9 -10 17 -15 17 -5 0 -9 5 -9 10 0 6 -8 20 -18 31 -11 10 -25 32 -33 47 -8
15 -18 32 -24 38 -5 6 -28 37 -50 69 -22 32 -48 65 -57 74 -10 8 -18 19 -18
24 0 5 -6 15 -12 22 -14 16 -17 19 -68 85 -35 45 -50 64 -90 110 -12 14 -36
42 -53 64 -97 119 -427 454 -547 556 -36 30 -70 60 -76 65 -35 31 -65 55 -69
55 -2 0 -18 13 -34 29 -17 16 -52 44 -78 62 -44 31 -69 49 -97 74 -6 6 -28 21
-48 35 -21 14 -38 28 -38 33 0 4 -7 7 -15 7 -8 0 -15 4 -15 9 0 5 -8 11 -17
15 -16 5 -99 60 -130 86 -16 13 -203 130 -208 130 -8 0 -110 65 -113 73 -2 4
-12 7 -22 7 -10 0 -20 3 -22 8 -1 4 -27 18 -55 31 -29 14 -53 28 -53 33 0 4
-3 7 -7 6 -12 -4 -73 26 -73 35 0 5 -4 6 -9 3 -5 -3 -14 1 -21 9 -7 8 -18 15
-24 15 -7 0 -39 13 -72 29 -32 15 -81 38 -109 50 -27 13 -63 28 -80 36 -16 7
-61 25 -100 40 -70 26 -95 37 -137 55 -34 14 -201 71 -218 75 -8 1 -22 5 -30
8 -45 17 -138 47 -160 51 -14 3 -79 19 -145 36 -111 29 -137 35 -190 44 -11 2
-31 7 -45 10 -14 3 -38 8 -55 11 -16 3 -41 8 -55 11 -14 2 -36 7 -50 11 -14 3
-34 7 -45 8 -43 5 -111 15 -134 20 -13 2 -49 7 -80 11 -31 3 -58 8 -61 9 -3 2
-30 4 -60 6 -30 1 -61 7 -67 12 -9 6 -13 6 -13 -1 0 -6 -6 -10 -12 -7 -54 17
-667 28 -833 15z m337 -243 c-7 -8 -9 -16 -6 -20 7 -7 7 -207 0 -215 -3 -3 -1
-11 5 -19 7 -8 8 -13 1 -13 -6 0 -7 -13 -2 -35 4 -20 4 -38 -1 -41 -5 -3 -5
-13 1 -25 6 -11 7 -19 1 -19 -5 0 -6 -14 -1 -34 4 -19 4 -40 -1 -47 -4 -7 -3
-19 3 -26 7 -9 7 -13 0 -13 -6 0 -7 -13 -2 -35 4 -20 4 -38 -1 -41 -5 -3 -5
-13 1 -25 6 -11 7 -19 1 -19 -5 0 -6 -14 -1 -34 4 -19 4 -40 -1 -47 -4 -7 -3
-19 3 -26 7 -9 7 -13 0 -13 -6 0 -7 -13 -2 -35 4 -20 4 -38 -1 -41 -5 -3 -5
-13 1 -25 6 -11 7 -19 1 -19 -5 0 -6 -14 -1 -34 4 -19 4 -40 -1 -47 -4 -7 -3
-19 3 -26 7 -9 7 -13 0 -13 -6 0 -7 -13 -2 -35 4 -20 4 -38 -1 -41 -5 -3 -5
-13 1 -25 6 -11 7 -19 1 -19 -5 0 -6 -14 -1 -34 4 -19 4 -40 -1 -47 -4 -7 -3
-19 3 -26 7 -9 7 -13 0 -13 -6 0 -7 -13 -2 -35 4 -20 4 -38 -1 -41 -5 -3 -5
-13 1 -25 6 -11 7 -19 1 -19 -5 0 -6 -14 -1 -34 4 -19 4 -40 -1 -47 -4 -7 -3
-19 3 -26 6 -7 7 -13 2 -13 -5 0 -8 -79 -6 -176 3 -156 1 -176 -13 -171 -8 4
-15 1 -15 -6 0 -7 -3 -8 -8 -2 -4 6 -29 10 -57 10 -27 0 -53 -4 -57 -10 -5 -7
-8 -7 -8 0 0 6 -138 10 -395 10 -257 0 -395 -4 -395 -10 0 -7 -3 -7 -8 0 -4 6
-29 10 -57 10 -27 0 -53 -4 -57 -10 -5 -7 -8 -7 -8 0 0 6 -24 10 -52 10 -29 0
-56 -4 -60 -10 -5 -7 -8 -7 -8 0 0 6 -25 10 -55 10 -30 0 -55 -4 -55 -10 0 -7
-3 -7 -8 0 -4 6 -29 10 -57 10 -27 0 -53 -4 -57 -10 -5 -7 -8 -7 -8 0 0 6 -85
10 -235 10 -150 0 -235 -4 -235 -10 0 -7 -3 -7 -8 0 -4 6 -29 10 -57 10 -27 0
-53 -4 -57 -10 -5 -7 -8 -7 -8 0 0 6 -24 10 -52 10 -29 0 -56 -4 -60 -10 -5
-7 -8 -7 -8 0 0 6 -25 10 -55 10 -30 0 -55 -4 -55 -10 0 -7 -3 -7 -8 0 -4 6
-29 10 -57 10 -27 0 -53 -4 -57 -10 -5 -7 -8 -7 -8 0 0 6 -19 9 -43 8 l-43 -2
0 597 c1 328 5 603 10 610 6 11 276 146 361 182 11 4 40 17 65 28 25 10 63 25
85 32 22 7 45 17 51 22 7 5 21 11 33 13 11 2 35 10 53 18 33 15 179 68 188 69
3 0 16 5 30 10 22 9 39 14 75 21 6 2 15 5 20 8 6 4 24 10 40 14 45 12 45 12
48 15 1 1 11 3 22 5 25 3 55 11 125 30 30 8 64 17 75 19 11 2 43 9 70 16 28 6
62 13 77 15 15 2 38 7 50 11 13 4 34 8 48 10 14 2 39 6 55 9 17 3 44 7 60 9
17 2 47 7 68 10 20 3 54 8 75 11 20 3 51 8 67 10 17 3 59 7 95 10 36 3 99 8
140 11 41 3 76 7 77 8 1 0 77 2 169 4 143 3 166 1 156 -11z m417 -2 c25 -3 80
-8 121 -10 41 -3 87 -8 103 -10 15 -3 39 -7 55 -10 15 -2 51 -7 80 -10 30 -2
57 -7 60 -9 4 -2 32 -7 62 -10 30 -4 73 -11 95 -17 22 -6 55 -13 74 -15 19 -3
37 -7 41 -9 4 -3 25 -7 46 -10 22 -4 48 -9 59 -12 11 -4 25 -8 30 -9 34 -6
258 -68 295 -80 25 -9 52 -17 60 -19 8 -2 53 -18 100 -35 47 -17 92 -32 100
-34 14 -4 121 -47 165 -65 11 -5 38 -16 60 -24 22 -9 58 -23 80 -33 22 -10 43
-17 48 -16 4 1 7 -2 7 -7 0 -7 31 -21 43 -19 1 0 80 -39 175 -87 l172 -88 0
-61 c1 -33 1 -367 1 -741 0 -374 2 -687 4 -695 4 -13 107 -15 852 -14 l848 2
27 -32 c15 -17 27 -37 28 -43 0 -7 5 -13 10 -13 6 0 10 -6 10 -14 0 -8 3 -16
8 -18 16 -7 192 -281 192 -299 0 -5 4 -9 9 -9 5 0 11 -8 15 -17 3 -10 21 -45
40 -78 19 -33 49 -89 67 -125 18 -36 36 -67 39 -70 3 -3 22 -41 42 -85 20 -44
53 -115 72 -157 20 -42 36 -78 36 -81 0 -2 10 -26 22 -53 12 -27 23 -53 24
-59 1 -5 16 -46 34 -90 34 -84 135 -383 144 -425 3 -14 10 -41 15 -60 21 -77
72 -287 76 -315 3 -16 7 -42 9 -57 2 -14 7 -35 10 -46 10 -32 16 -63 20 -113
l5 -46 -1307 -1 c-719 0 -1317 -1 -1330 -1 -23 -1 -23 -3 -21 -100 1 -54 -2
-104 -5 -110 -4 -6 -4 -11 1 -11 10 0 9 -52 -1 -68 -4 -7 -4 -12 1 -12 10 0 9
-92 -1 -108 -4 -7 -4 -12 1 -12 10 0 8 -93 -1 -109 -4 -6 -4 -11 1 -11 10 0 9
-92 -1 -108 -4 -7 -4 -12 1 -12 10 0 8 -93 -1 -109 -4 -6 -4 -11 1 -11 10 0 9
-92 -1 -108 -4 -7 -4 -12 1 -12 10 0 8 -93 -1 -109 -4 -6 -4 -11 1 -11 10 0 9
-92 -1 -108 -4 -7 -4 -12 1 -12 10 0 8 -93 -1 -109 -4 -6 -4 -11 1 -11 10 0 9
-92 -1 -108 -4 -7 -4 -12 1 -12 10 0 8 -93 -1 -109 -4 -6 -4 -11 1 -11 10 0 9
-52 -1 -68 -4 -7 -4 -12 1 -12 10 0 9 -92 -1 -108 -4 -7 -4 -12 1 -12 10 0 8
-93 -1 -109 -4 -6 -4 -11 1 -11 10 0 9 -92 -1 -108 -4 -7 -4 -12 1 -12 10 0 8
-93 -1 -109 -4 -6 -4 -11 1 -11 10 0 9 -92 -1 -108 -4 -7 -4 -12 1 -12 10 0 8
-93 -1 -109 -4 -6 -4 -11 1 -11 10 0 9 -92 -1 -108 -4 -7 -4 -12 1 -12 10 0 8
-93 -1 -109 -4 -6 -4 -11 1 -11 10 0 9 -92 -1 -108 -4 -7 -4 -12 1 -12 10 0 8
-93 -1 -109 -4 -6 -4 -11 1 -11 10 0 9 -52 -1 -68 -4 -7 -4 -12 1 -12 10 0 9
-92 -1 -108 -4 -7 -4 -12 1 -12 10 0 8 -93 -1 -109 -4 -6 -4 -11 1 -11 10 0 9
-92 -1 -108 -4 -7 -4 -12 1 -12 10 0 8 -93 -1 -109 -4 -6 -4 -11 1 -11 10 0 9
-92 -1 -108 -4 -7 -4 -12 1 -12 10 0 8 -93 -1 -109 -4 -6 -4 -11 1 -11 10 0 9
-92 -1 -108 -4 -7 -3 -12 3 -12 5 0 8 -9 6 -20 -4 -19 1 -20 93 -17 l97 2 1
1770 c1 974 2 1773 3 1778 0 4 562 7 1247 7 1241 0 1246 0 1241 -20 -3 -11 -2
-20 2 -20 4 0 7 -10 7 -22 2 -65 14 -211 19 -219 4 -5 0 -9 -7 -9 -9 0 -9 -3
-2 -8 11 -8 13 -51 13 -357 -1 -182 -4 -320 -9 -320 -1 0 -3 -28 -5 -61 -5
-94 -15 -185 -30 -284 -2 -19 -8 -57 -11 -85 -3 -27 -8 -59 -10 -70 -2 -10 -6
-35 -9 -55 -3 -20 -8 -47 -11 -60 -3 -14 -7 -36 -10 -50 -2 -14 -7 -32 -10
-40 -3 -8 -8 -33 -10 -55 -3 -22 -9 -53 -14 -70 -5 -16 -12 -41 -14 -55 -3
-14 -13 -52 -22 -85 -18 -68 -22 -84 -23 -103 -1 -7 -4 -11 -8 -9 -5 3 -9 -9
-9 -26 -1 -34 -120 -385 -135 -401 -5 -6 -9 -18 -9 -28 0 -10 -5 -18 -12 -18
-6 0 -9 -3 -5 -6 5 -6 -17 -72 -48 -139 -59 -130 -73 -163 -79 -182 -4 -13
-12 -23 -18 -23 -6 0 -9 -3 -5 -6 3 -4 -6 -30 -20 -58 -15 -28 -28 -53 -28
-56 -5 -19 -30 -60 -37 -60 -5 0 -7 -4 -3 -9 3 -5 -2 -17 -11 -25 -8 -9 -13
-16 -10 -16 8 0 -56 -114 -66 -118 -4 -2 -8 -7 -8 -12 0 -14 -120 -213 -143
-238 -11 -12 -16 -22 -11 -22 5 0 4 -4 -1 -8 -6 -4 -33 -41 -61 -82 -82 -122
-117 -170 -126 -170 -4 0 -8 -5 -8 -11 0 -10 -108 -154 -151 -201 -13 -14 -58
-67 -99 -116 -41 -50 -83 -94 -92 -97 -10 -4 -17 -10 -15 -14 2 -8 -260 -271
-368 -368 -38 -35 -76 -63 -84 -63 -8 0 -12 -3 -8 -6 3 -4 -13 -22 -36 -41
-23 -19 -53 -44 -67 -56 -14 -12 -28 -21 -32 -19 -5 1 -8 -2 -8 -7 0 -4 -19
-21 -42 -37 -44 -30 -60 -41 -81 -60 -36 -31 -128 -94 -137 -94 -5 0 -10 -3
-10 -8 0 -4 -25 -22 -55 -40 -30 -18 -55 -37 -55 -43 0 -5 -3 -8 -7 -7 -5 1
-27 -10 -51 -25 -24 -15 -54 -33 -68 -39 -13 -6 -24 -15 -24 -20 0 -4 -4 -8
-9 -8 -5 0 -50 -25 -100 -55 -51 -30 -98 -55 -106 -55 -7 0 -15 -4 -17 -9 -1
-5 -10 -11 -18 -13 -8 -2 -21 -9 -28 -16 -8 -7 -17 -10 -22 -7 -5 3 -10 1 -12
-4 -3 -8 -181 -101 -193 -101 -3 0 -35 -14 -72 -32 -38 -17 -70 -32 -73 -33
-3 -1 -18 -7 -35 -14 -16 -7 -59 -24 -95 -38 -36 -13 -78 -31 -95 -38 -16 -7
-39 -15 -50 -17 -11 -1 -22 -5 -25 -8 -3 -3 -63 -25 -135 -49 -71 -23 -137
-45 -145 -48 -8 -3 -24 -8 -35 -10 -27 -6 -37 -9 -55 -16 -8 -3 -26 -8 -40
-10 -42 -9 -72 -16 -104 -26 -32 -11 -76 -20 -111 -25 -11 -2 -27 -6 -35 -9
-13 -5 -47 -12 -115 -22 -11 -2 -20 -4 -20 -5 0 -3 -40 -11 -75 -15 -19 -2
-35 -4 -35 -5 0 -1 -11 -3 -25 -5 -108 -14 -165 -22 -210 -30 -19 -3 -64 -7
-100 -10 -36 -2 -65 -5 -65 -5 0 -3 -145 -12 -214 -14 l-74 -1 -1 5255 c-1
2890 2 5260 7 5267 8 11 111 10 226 -2z m-4499 -2007 c0 4 18 7 40 7 22 0 40
-4 40 -8 0 -5 5 -5 12 -1 16 10 58 12 64 2 3 -4 11 -5 18 -2 19 7 146 10 146
4 0 -3 9 -6 20 -6 11 0 20 3 20 6 0 7 85 4 106 -4 8 -3 14 -2 14 2 0 4 18 7
40 7 22 0 40 -4 40 -8 0 -5 5 -5 12 -1 16 10 58 12 64 2 3 -4 11 -5 18 -2 19
7 146 10 146 4 0 -3 9 -6 20 -6 11 0 20 3 20 6 0 7 85 4 106 -4 8 -3 14 -2 14
2 0 4 18 7 40 7 22 0 40 -4 40 -8 0 -5 5 -5 12 -1 16 10 58 12 64 2 3 -4 11
-5 18 -2 19 7 146 10 146 4 0 -3 9 -6 20 -6 11 0 20 3 20 7 0 7 44 4 57 -4 5
-3 9 -1395 8 -3094 l0 -3088 93 0 c85 0 92 2 93 20 0 11 1 1403 1 3093 1 2566
3 3072 15 3068 7 -3 13 -2 13 2 0 4 555 7 1232 7 1084 0 1234 -2 1245 -15 7
-9 8 -19 3 -24 -5 -5 -5 -17 0 -27 6 -10 6 -20 1 -23 -4 -3 -5 -24 -1 -46 4
-22 3 -43 -1 -46 -5 -3 -4 -14 1 -25 6 -11 7 -19 1 -19 -5 0 -6 -14 -1 -34 4
-19 4 -40 -1 -47 -4 -7 -3 -19 3 -26 7 -9 7 -13 0 -13 -6 0 -7 -13 -2 -35 4
-20 4 -38 -1 -41 -5 -3 -5 -13 1 -25 6 -11 7 -19 1 -19 -5 0 -6 -14 -1 -34 4
-19 4 -40 -1 -47 -4 -7 -3 -19 3 -26 7 -9 7 -13 0 -13 -6 0 -7 -13 -2 -35 4
-20 4 -38 -1 -41 -5 -3 -5 -13 1 -25 6 -10 7 -19 2 -19 -4 0 -5 -25 -2 -56 3
-30 3 -57 -2 -60 -4 -3 -3 -14 2 -25 6 -11 7 -19 1 -19 -5 0 -6 -14 -1 -34 4
-19 4 -40 -1 -47 -4 -7 -3 -19 3 -26 7 -9 7 -13 0 -13 -6 0 -7 -13 -2 -35 4
-20 4 -38 -1 -41 -5 -3 -5 -13 1 -25 6 -11 7 -19 1 -19 -5 0 -6 -14 -1 -34 4
-19 4 -40 -1 -47 -4 -7 -3 -19 3 -26 7 -9 7 -13 0 -13 -6 0 -7 -13 -2 -35 4
-20 4 -38 -1 -41 -5 -3 -5 -13 1 -25 6 -10 7 -19 2 -19 -4 0 -5 -25 -2 -56 3
-30 3 -57 -2 -60 -4 -3 -3 -14 2 -25 6 -11 7 -19 1 -19 -5 0 -6 -14 -1 -34 4
-19 4 -40 -1 -47 -4 -7 -3 -19 3 -26 7 -9 7 -13 0 -13 -6 0 -7 -13 -2 -35 4
-20 4 -38 -1 -41 -5 -3 -5 -13 1 -25 6 -11 7 -19 1 -19 -5 0 -6 -14 -1 -34 4
-19 4 -40 -1 -47 -4 -7 -3 -19 3 -26 7 -9 7 -13 0 -13 -6 0 -7 -13 -2 -35 4
-20 4 -38 -1 -41 -5 -3 -5 -13 1 -25 6 -10 7 -19 2 -19 -4 0 -5 -25 -2 -56 3
-30 3 -57 -2 -60 -4 -3 -3 -14 2 -25 6 -11 7 -19 1 -19 -5 0 -6 -14 -1 -34 4
-19 4 -40 -1 -47 -4 -7 -3 -19 3 -26 7 -9 7 -13 0 -13 -6 0 -7 -13 -2 -35 4
-20 4 -38 -1 -41 -5 -3 -5 -13 1 -25 6 -11 7 -19 1 -19 -5 0 -6 -14 -1 -34 4
-19 4 -40 -1 -47 -4 -7 -3 -19 3 -26 7 -9 7 -13 0 -13 -6 0 -7 -13 -2 -35 4
-20 4 -38 -1 -41 -5 -3 -5 -13 1 -25 6 -10 7 -19 3 -19 -4 0 -6 -160 -3 -356
3 -196 2 -361 -2 -367 -4 -6 -2 -17 4 -24 7 -9 7 -13 0 -13 -6 0 -7 -13 -2
-35 4 -20 4 -38 -1 -41 -5 -3 -5 -13 1 -25 6 -11 7 -19 1 -19 -5 0 -6 -14 -1
-34 4 -19 4 -40 -1 -47 -4 -7 -3 -19 3 -26 7 -9 7 -13 0 -13 -6 0 -7 -13 -2
-35 4 -20 4 -38 -1 -41 -5 -3 -5 -13 1 -25 6 -11 7 -19 1 -19 -5 0 -6 -14 -1
-34 4 -19 4 -40 -1 -47 -4 -7 -3 -19 3 -26 7 -9 7 -13 0 -13 -6 0 -7 -13 -2
-35 4 -20 4 -38 -1 -41 -5 -3 -5 -13 1 -25 6 -11 7 -19 1 -19 -5 0 -6 -14 -1
-34 4 -19 4 -40 -1 -47 -4 -7 -3 -19 3 -26 7 -9 7 -13 0 -13 -6 0 -7 -13 -2
-35 4 -20 4 -38 -1 -41 -5 -3 -5 -13 1 -25 6 -11 7 -19 1 -19 -5 0 -6 -14 -1
-34 4 -19 4 -40 -1 -47 -4 -7 -3 -19 3 -26 7 -9 7 -13 0 -13 -6 0 -7 -13 -2
-35 4 -20 4 -38 -1 -41 -5 -3 -5 -13 1 -25 6 -11 7 -19 1 -19 -5 0 -6 -14 -1
-34 4 -19 4 -40 -1 -47 -4 -7 -3 -19 3 -26 6 -7 7 -13 2 -13 -5 0 -7 -156 -4
-356 3 -196 2 -358 -3 -361 -4 -2 -2 -13 3 -24 6 -11 7 -19 1 -19 -5 0 -6 -14
-1 -34 4 -19 4 -40 -1 -47 -4 -7 -3 -19 3 -26 7 -9 7 -13 0 -13 -6 0 -7 -13
-2 -35 4 -20 4 -38 -1 -41 -5 -3 -5 -13 1 -25 6 -11 7 -19 1 -19 -5 0 -6 -14
-1 -34 4 -19 4 -40 -1 -47 -4 -7 -3 -19 3 -26 7 -9 7 -13 0 -13 -6 0 -7 -13
-2 -35 4 -20 4 -38 -1 -41 -5 -3 -5 -13 1 -25 6 -10 7 -19 2 -19 -4 0 -5 -25
-2 -56 3 -30 3 -57 -2 -60 -4 -3 -3 -14 2 -25 6 -11 7 -19 1 -19 -5 0 -6 -14
-1 -34 4 -19 4 -40 -1 -47 -4 -7 -3 -19 3 -26 7 -9 7 -13 0 -13 -6 0 -7 -13
-2 -35 4 -20 4 -38 -1 -41 -5 -3 -5 -13 1 -25 6 -11 7 -19 1 -19 -5 0 -6 -14
-1 -34 4 -19 4 -40 -1 -47 -4 -7 -3 -19 3 -26 7 -9 7 -13 0 -13 -6 0 -7 -13
-2 -35 4 -20 4 -38 -1 -41 -5 -3 -5 -13 1 -25 6 -10 7 -19 3 -19 -4 0 -6 -160
-3 -356 3 -196 2 -361 -2 -367 -4 -6 -2 -17 4 -24 7 -9 7 -13 0 -13 -6 0 -7
-13 -2 -35 4 -20 4 -38 -1 -41 -5 -3 -5 -13 1 -25 6 -11 7 -19 1 -19 -5 0 -6
-14 -1 -34 4 -19 4 -40 -1 -47 -4 -7 -3 -19 3 -26 7 -9 7 -13 0 -13 -6 0 -7
-13 -2 -35 4 -20 4 -38 -1 -41 -5 -3 -5 -13 1 -25 6 -11 7 -19 1 -19 -5 0 -6
-14 -1 -34 4 -19 4 -40 -1 -47 -4 -7 -3 -19 3 -26 7 -9 7 -13 0 -13 -6 0 -7
-13 -2 -35 4 -20 4 -38 -1 -41 -5 -3 -5 -13 1 -25 6 -11 7 -19 1 -19 -5 0 -6
-14 -1 -34 4 -19 4 -40 -1 -47 -4 -7 -3 -19 3 -26 7 -9 7 -13 0 -13 -6 0 -7
-13 -2 -35 4 -20 4 -38 -1 -41 -5 -3 -5 -13 1 -25 6 -11 7 -19 1 -19 -5 0 -6
-14 -1 -34 4 -19 4 -40 -1 -47 -4 -7 -3 -19 3 -26 7 -9 7 -13 0 -13 -6 0 -7
-13 -2 -35 4 -20 4 -38 -1 -41 -5 -3 -5 -13 1 -25 6 -11 7 -19 1 -19 -5 0 -6
-14 -1 -34 4 -19 4 -40 -1 -47 -4 -7 -3 -19 3 -26 6 -7 6 -13 2 -13 -5 0 -9
-23 -9 -51 l0 -51 -48 -2 c-26 0 -47 1 -47 4 0 3 -51 5 -113 6 -61 0 -150 4
-197 7 -47 4 -116 10 -155 12 -38 3 -77 8 -85 11 -8 3 -33 8 -55 10 -42 4 -59
7 -135 18 -25 4 -58 9 -75 11 -16 2 -31 4 -32 4 -2 1 -5 1 -8 2 -2 0 -19 5
-37 10 -18 5 -53 12 -77 15 -25 3 -50 8 -55 12 -6 4 -22 8 -36 9 -21 3 -58 11
-80 18 -3 1 -33 8 -67 15 -35 8 -63 16 -63 20 0 3 -14 6 -31 7 -17 1 -37 7
-44 13 -6 5 -15 7 -18 3 -4 -3 -13 0 -22 7 -8 7 -15 10 -15 6 0 -3 -22 3 -49
13 -28 10 -52 16 -55 13 -4 -3 -6 0 -6 7 0 7 -4 10 -10 6 -5 -3 -17 -1 -27 4
-20 11 -52 23 -70 27 -14 3 -141 50 -188 69 -16 7 -57 23 -90 36 -61 23 -115
47 -260 114 -44 20 -82 37 -85 37 -3 -1 -12 6 -20 13 -8 7 -22 15 -30 17 -8 2
-17 5 -20 8 -5 5 -159 87 -197 105 -13 5 -23 13 -23 18 0 4 -5 7 -10 7 -6 0
-29 12 -53 27 -69 45 -101 63 -119 69 -10 4 -18 10 -18 15 0 5 -7 9 -15 9 -8
0 -15 4 -15 9 0 5 -8 12 -17 15 -10 3 -31 17 -47 31 -16 14 -35 25 -42 25 -7
0 -14 4 -16 8 -1 5 -30 27 -63 49 -33 23 -70 50 -82 62 -12 12 -25 21 -29 21
-3 0 -21 12 -39 28 -17 15 -42 34 -55 42 -12 8 -38 29 -56 45 -19 17 -46 39
-60 50 -155 121 -490 450 -639 629 -22 26 -50 58 -62 71 -13 13 -23 29 -23 35
0 5 -4 10 -9 10 -4 0 -39 42 -77 92 -37 51 -73 98 -78 105 -29 33 -36 43 -36
50 0 4 -14 24 -30 43 -16 19 -30 40 -30 47 0 6 -4 13 -8 15 -14 5 -172 251
-172 266 0 3 -6 13 -14 21 -7 9 -28 43 -46 76 -18 33 -40 70 -48 83 -8 12 -11
22 -7 22 5 0 1 8 -7 18 -8 9 -27 41 -42 71 -16 30 -32 62 -37 70 -10 18 -52
113 -54 121 -1 3 -16 37 -34 75 -18 39 -34 76 -34 83 0 6 -3 12 -7 12 -4 0
-13 19 -20 43 -8 23 -27 74 -43 112 -16 39 -30 75 -31 80 -2 6 -6 17 -9 25
-11 28 -68 195 -72 210 -2 8 -8 26 -13 40 -5 14 -10 28 -11 32 -1 4 -3 13 -6
20 -6 22 -37 142 -39 158 -2 8 -8 35 -15 59 -15 53 -47 202 -55 255 -4 21 -8
42 -11 46 -3 4 -7 23 -9 41 -3 19 -7 50 -10 69 -4 19 -8 49 -10 65 -9 69 -18
132 -22 155 -3 14 -7 57 -10 95 -3 39 -7 95 -11 125 -8 84 -8 724 0 815 4 44
10 105 12 135 7 76 15 139 30 235 4 22 8 56 10 75 2 19 4 35 5 35 1 0 3 11 4
25 2 14 6 35 10 48 4 12 9 35 11 50 2 15 9 47 15 72 6 25 13 62 15 82 6 50 9
62 15 68 6 5 51 189 50 203 0 4 7 21 15 37 9 17 14 30 12 30 -3 0 18 64 44
143 27 78 51 149 53 158 2 9 18 48 35 88 16 39 27 71 23 71 -4 0 -2 4 3 8 9 6
33 61 38 87 1 6 6 13 10 16 5 3 9 12 11 20 1 8 19 50 39 93 20 43 37 85 37 92
0 8 5 14 10 14 6 0 10 8 10 18 0 10 4 22 9 27 5 6 30 51 56 100 86 163 117
220 131 236 8 8 14 18 14 21 0 18 166 270 182 276 4 2 6 7 3 12 -3 5 1 14 8
22 7 7 24 29 37 48 13 19 28 40 32 45 5 6 27 35 51 65 23 30 45 57 49 58 5 2
8 10 8 17 0 18 20 23 53 14 15 -4 27 -5 27 -1z"/>
</g>
</svg>
